<?xml version="1.0" encoding="UTF-8" standalone="no"?>
<!-- Created with Inkscape (http://www.inkscape.org/) -->

<svg
   width="512"
   height="512"
   viewBox="0 0 512 512"
   version="1.1"
   id="svg1"
   inkscape:version="1.3.2 (091e20ef0f, 2023-11-25, custom)"
   sodipodi:docname="ingame-stroke.svg"
   inkscape:export-filename="ingame_stroke.png"
   inkscape:export-xdpi="96"
   inkscape:export-ydpi="96"
   xml:space="preserve"
   xmlns:inkscape="http://www.inkscape.org/namespaces/inkscape"
   xmlns:sodipodi="http://sodipodi.sourceforge.net/DTD/sodipodi-0.dtd"
   xmlns:xlink="http://www.w3.org/1999/xlink"
   xmlns="http://www.w3.org/2000/svg"
   xmlns:svg="http://www.w3.org/2000/svg"><sodipodi:namedview
     id="namedview1"
     pagecolor="#ffffff"
     bordercolor="#000000"
     borderopacity="0.25"
     inkscape:showpageshadow="2"
     inkscape:pageopacity="0.0"
     inkscape:pagecheckerboard="0"
     inkscape:deskcolor="#d1d1d1"
     inkscape:document-units="px"
     inkscape:zoom="1.5385096"
     inkscape:cx="319.79001"
     inkscape:cy="227.49289"
     inkscape:window-width="2991"
     inkscape:window-height="1194"
     inkscape:window-x="0"
     inkscape:window-y="0"
     inkscape:window-maximized="1"
     inkscape:current-layer="layer1"
     showguides="false" /><defs
     id="defs1"><linearGradient
       id="linearGradient1"
       inkscape:collect="always"><stop
         style="stop-color:#3c0369;stop-opacity:1;"
         offset="0"
         id="stop1" /><stop
         style="stop-color:#690ae0;stop-opacity:0.98431373;"
         offset="1"
         id="stop2" /></linearGradient><linearGradient
       inkscape:collect="always"
       xlink:href="#linearGradient1-9"
       id="linearGradient2-5"
       x1="0"
       y1="256"
       x2="512"
       y2="256"
       gradientUnits="userSpaceOnUse"
       gradientTransform="translate(-605.70251,-349.70254)" /><linearGradient
       id="linearGradient1-9"
       inkscape:collect="always"><stop
         style="stop-color:#1d0131;stop-opacity:1;"
         offset="0"
         id="stop1-2" /><stop
         style="stop-color:#421781;stop-opacity:1;"
         offset="0.5"
         id="stop3-2" /><stop
         style="stop-color:#6a0ae3;stop-opacity:0.98234051;"
         offset="1"
         id="stop2-8" /></linearGradient><linearGradient
       inkscape:collect="always"
       xlink:href="#linearGradient1"
       id="linearGradient2"
       x1="19.178196"
       y1="246.02422"
       x2="496.28813"
       y2="246.02422"
       gradientUnits="userSpaceOnUse" /></defs><g
     inkscape:label="Layer 1"
     inkscape:groupmode="layer"
     id="layer1"><circle
       style="fill:url(#linearGradient2-5);stroke-width:1.07633"
       id="path1-1-7"
       cx="-349.70251"
       cy="-93.702515"
       transform="rotate(-150)"
       r="256" /><g
       id="g1"
       transform="translate(-4.2664706)"><path
         style="color:#000000;fill:url(#linearGradient2);stroke:none;stroke-width:0;stroke-dasharray:none"
         d="m 258.32031,141.53125 c -14.06708,-0.075 -28.28994,0.49617 -42.42773,1.61914 8.34744,1.5316 16.75201,2.55928 25.18359,3.125 5.74473,-0.19709 11.48918,-0.28638 17.21875,-0.25586 4.23027,0.0225 8.47168,0.12048 12.71289,0.26563 8.30965,-0.56501 16.58402,-1.61896 24.80274,-3.11719 -12.50308,-1.0041 -25.05677,-1.57048 -37.49024,-1.63672 z M 120.57617,162.4082 c -34.961292,10.53931 -64.351439,25.20155 -82.130858,43.46094 -59.802363,61.41719 21.390569,143.59294 218.771488,144.64453 71.37993,0.38028 127.58912,-10.04297 167.58203,-26.39844 a 37.674124,37.674126 89.449187 0 0 23.45117,8.44727 37.674124,37.674126 89.449187 0 0 37.875,-37.47266 37.674124,37.674126 89.449187 0 0 -1.94922,-12.1289 c 17.87755,-23.88243 16.21677,-50.75084 -6.66016,-74.75196 -17.76201,-18.6349 -47.41473,-33.72464 -82.73046,-44.6621 3.64357,3.3149 6.99442,6.96624 10.05859,10.88476 22.22616,9.17248 40.37909,20.48035 51.74805,33.66602 14.88576,17.26452 17.35698,35.77607 8.52343,53.01367 a 37.674124,37.674126 89.449187 0 0 -16.46289,-3.89649 37.674124,37.674126 89.449187 0 0 -37.875,37.47461 37.674124,37.674126 89.449187 0 0 1.15235,9.1211 c -36.14557,15.82118 -88.31461,26.03283 -154.60157,25.67968 -168.820395,-0.89942 -245.825546,-69.174 -197.957026,-123.50976 10.995588,-12.48129 28.185812,-23.17106 49.156246,-31.89649 3.68208,-4.28772 7.72073,-8.18487 12.04883,-11.67578 z"
         id="path4" /><path
         id="path13"
         style="color:#000000;display:inline;fill:#ffffff;fill-opacity:1;-inkscape-stroke:none"
         d="m 259.11825,136.90022 c 0.99243,0.12762 -48.56011,0.63479 -62.03053,2.42196 l 18.80486,3.82821 c 12.81173,-1.22398 29.05875,-1.1442 43.1385,-1.16005 13.73131,0.002 24.11907,0.0602 36.77947,1.17763 l 15.83414,-3.84579 c -12.81802,-1.04694 -53.26985,-2.51755 -52.52644,-2.42196 z m -129.69812,18.3223 c -35.301029,10.64172 -72.47867,26.81972 -90.9496,45.78929 -15.4988,15.91735 -22.21184,33.75887 -19.76172,51.28906 2.45017,17.53023 13.84895,34.34779 33.09961,48.9043 38.50132,29.11305 108.74877,49.86422 207.92188,50.39258 70.72529,0.3768 126.68805,-9.80414 167.13672,-25.99414 6.9412,5.07563 15.2527,7.96895 23.8867,8.04297 h 0.01 c 22.6983,0.12135 41.2734,-18.25497 41.3945,-40.95313 v -0.002 -0.002 c 0.017,-3.91001 -0.6271,-7.77513 -1.7051,-11.52735 8.6165,-12.08445 12.77,-25.13359 11.6973,-38.23437 -1.116,-13.62871 -7.7091,-27.10679 -19.5684,-39.54883 -18.4528,-19.35997 -60.09497,-36.71662 -95.75075,-47.75937 l 7.95389,7.92735 14.46486,5.23241 c 29.1887,10.3643 53.3522,23.7834 68.2656,39.42969 11.0176,11.55898 16.6939,23.51473 17.6582,35.29101 0.9643,11.77627 -2.7372,23.55182 -11.2675,34.94727 l -1.0996,1.46875 0.5839,1.74023 c 1.1873,3.54594 1.7841,7.26254 1.7676,11.00196 -0.102,18.9122 -15.4401,34.08618 -34.3515,33.98828 -7.7534,-0.0678 -15.2507,-2.76912 -21.2657,-7.66211 l -1.6113,-1.31055 -1.9219,0.78711 c -39.4113,16.11766 -95.21113,26.51514 -166.24021,26.13672 C 161.56059,344.07453 92.52047,323.21291 56.03108,295.62119 37.78638,281.82531 27.76465,266.51618 25.64241,251.33212 c -2.12225,-15.18402 3.44152,-30.64637 17.84375,-45.4375 14.613,-15.0075 49.00391,-33.55902 77.09001,-43.48642 4.778,-3.87667 2.57358,-2.09102 8.84396,-7.18568 z"
         sodipodi:nodetypes="scccccscccssscssscscsccccsssccccccccsscc" /><path
         id="path3"
         style="color:#000000;display:inline;fill:#ffffff;fill-opacity:1;stroke-width:1.52905"
         d="m 331.04297,139.33398 c -5.12453,-0.0904 -10.06328,0.33988 -15.10938,1.25391 a 7.2183993,7.3123758 0 0 0 -0.67773,0.23633 c -21.31862,5.89466 -43.30008,8.50073 -65.23438,7.88672 -0.60057,-0.0159 -1.20028,-0.0673 -1.80078,-0.0879 -6.78527,-0.2446 -13.56465,-0.7633 -20.3164,-1.62305 v 0.0566 c -7.29465,-0.90937 -14.55699,-2.17573 -21.75977,-3.83398 -7.13675,-1.90127 -14.34633,-2.81465 -21.46875,-2.8125 -30.86382,0.009 -60.10632,17.23418 -74.8418,45.99804 a 7.2183993,7.3123758 0 0 0 0,0.23047 c -15.539097,31.4364 -27.698125,64.4224 -36.398433,98.40821 23.339957,17.64849 60.802603,32.02539 110.958983,39.29296 13.55446,-6.78107 28.37093,-10.62616 43.50977,-11.13867 v 0.0176 c 1.13099,-0.0379 2.25845,-0.12071 3.39258,-0.12109 h 19.1914 30.25977 c 19.30054,0.007 38.20565,5.47747 54.7539,15.53711 l 64.78516,39.30078 c 11.88119,7.21286 25.88198,5.72183 35.63672,-1.25782 9.75445,-6.97958 15.71147,-19.72108 12.9707,-33.47461 l -4.05859,-20.95898 C 436.4925,269.5062 422.61202,227.997 403.5,188.9707 391.28307,159.37141 362.71387,139.84122 331.04492,139.33398 Z M 132.5918,208.23242 h 11.47656 l -2.54492,9.27344 h -11.47656 z m 41.79101,12.96875 c 4.87299,0 8.03471,0.89034 9.48438,2.67188 1.51647,1.72914 1.75638,4.48125 0.7207,8.2539 l -7.66016,27.90235 h -11.47461 l 7.25,-26.41016 c 0.40274,-1.46714 0.54857,-2.56719 0.43555,-3.30078 -0.0605,-0.73358 -0.49448,-1.25788 -1.29883,-1.57227 -0.7521,-0.31439 -2.01933,-0.4707 -3.80078,-0.4707 -2.25317,0 -3.94788,0.15631 -5.08203,0.4707 -1.11997,0.262 -1.9611,0.76059 -2.5293,1.49414 -0.56821,0.73357 -1.0614,1.85937 -1.47851,3.37891 l -7.25,26.41016 h -11.47656 l 10.44336,-38.04297 h 11.31836 l -1.27344,4.63867 c 1.88331,-3.61548 6.44095,-5.42383 13.67187,-5.42383 z m 37.88477,0 c 2.72461,0 4.77742,0.15632 6.1582,0.47071 1.32853,0.31436 2.27306,0.78723 2.83399,1.41601 0.56093,0.62878 1.10491,1.7031 1.63085,3.22266 l 1.18555,-4.32422 h 3.82813 7.2539 l -7.2539,26.42578 -3.75,13.66016 c -1.4818,5.39699 -4.40582,9.27489 -8.77344,11.63281 -4.32953,2.41033 -10.24139,3.61523 -17.73438,3.61523 -6.18305,0 -10.7175,-0.184 -13.60351,-0.55078 l 2.11328,-7.70117 c 4.73842,0.68119 9.2322,1.02148 13.47656,1.02148 3.87738,0 6.82563,-0.62916 8.84766,-1.88672 2.02203,-1.25753 3.43661,-3.35478 4.24219,-6.28906 l 1.68359,-6.1289 c -1.31718,1.36232 -2.52307,2.40903 -3.61523,3.14257 -1.07773,0.68118 -2.38672,1.15402 -3.92579,1.41602 -1.50113,0.31439 -3.50835,0.4707 -6.02343,0.4707 -3.72022,0 -6.58589,-0.3403 -8.59961,-1.02148 -1.99935,-0.73358 -3.27463,-1.91474 -3.82422,-3.53906 -0.53523,-1.67675 -0.40128,-3.98172 0.4043,-6.91602 l 4.07812,-14.85351 c 0.96377,-3.51069 2.14987,-6.20936 3.55859,-8.09571 1.46092,-1.88633 3.39986,-3.22379 5.81641,-4.00976 2.46881,-0.78598 5.80024,-1.17774 9.99219,-1.17774 z m 48.73047,0 c 4.87296,0 8.51711,0.36801 10.93554,1.10156 2.47098,0.73358 4.03939,1.98995 4.70313,3.77149 0.66365,1.78156 0.52673,4.37536 -0.4082,7.78125 l -7.1836,26.17383 h -11.24023 l 0.94922,-3.45899 c -1.30793,1.51954 -2.80787,2.59388 -4.5,3.22266 -1.7066,0.68118 -4.68159,1.02148 -8.92579,1.02148 -3.56315,0 -6.15077,-0.31458 -7.75976,-0.94336 -1.54218,-0.68118 -2.44947,-1.86037 -2.72266,-3.53711 -0.20647,-1.72913 0.16067,-4.29529 1.09571,-7.70117 0.83431,-3.03908 1.85427,-5.42517 3.0625,-7.15429 1.26065,-1.72915 2.82892,-2.95978 4.70703,-3.69336 0.4496,-0.18169 0.9341,-0.33682 1.43945,-0.47657 1.52915,-0.40836 3.32282,-0.61684 5.33789,-0.6582 0.22079,-0.005 0.3943,-0.0449 0.6211,-0.0449 h 12.88867 l 0.71289,-2.5918 c 0.44603,-1.62434 0.54095,-2.83122 0.28515,-3.61719 -0.20345,-0.78596 -0.86358,-1.336 -1.98242,-1.65039 -1.06648,-0.31439 -2.77875,-0.4707 -5.13672,-0.4707 -1.94746,0 -4.51351,0.15096 -7.38867,0.37695 -1.92119,0.15102 -3.89459,0.31455 -6.23047,0.56641 l 1.98242,-7.23242 c 1.31807,-0.16124 2.80936,-0.25157 4.24805,-0.36328 3.23639,-0.25088 6.66468,-0.42188 10.50977,-0.42188 z m 51.48242,0 c 3.56308,0 6.13206,0.47285 7.70703,1.41602 1.58943,0.89077 2.43086,2.30346 2.52734,4.24219 1.17553,-1.99114 2.77655,-3.43151 4.80274,-4.32227 2.07835,-0.89078 4.95136,-1.33594 8.61914,-1.33594 3.30114,0 5.73507,0.39176 7.30078,1.17774 1.58016,0.73358 2.49448,1.88703 2.74414,3.45898 0.30201,1.57195 0.0927,3.66916 -0.62695,6.28906 l -7.65821,27.90235 h -11.47656 l 7.22852,-26.33008 c 0.46029,-1.67674 0.67883,-2.85595 0.65625,-3.53711 -0.009,-0.73359 -0.34224,-1.23215 -1.00391,-1.49414 -0.60931,-0.262 -1.77862,-0.39258 -3.50781,-0.39258 -2.14828,0 -3.72906,0.13058 -4.74414,0.39258 -0.96273,0.26199 -1.70299,0.76055 -2.21875,1.49414 -0.44896,0.68116 -0.90495,1.86037 -1.36524,3.53711 l -7.22851,26.33008 h -11.47266 l 7.22656,-26.33008 c 0.46029,-1.67674 0.67883,-2.85595 0.65625,-3.53711 -0.009,-0.73359 -0.34233,-1.23215 -1.0039,-1.49414 -0.60922,-0.262 -1.77874,-0.39258 -3.50781,-0.39258 -2.14828,0 -3.72908,0.13058 -4.74415,0.39258 -0.96271,0.26199 -1.70094,0.76055 -2.21679,1.49414 -0.44895,0.68116 -0.90485,1.86037 -1.36524,3.53711 l -7.22851,26.33008 h -11.47461 l 10.44336,-38.04297 h 11.47461 l -1.27149,4.63867 c 1.72607,-3.61548 5.96913,-5.42383 12.72852,-5.42383 z m 63.81836,0 c 6.02582,0 10.14198,1.0486 12.34375,3.14453 2.26838,2.04353 2.72528,5.52573 1.37304,10.45118 l -2.54492,9.27734 h -24.67968 l -0.95118,3.45703 c -0.60412,2.20072 -0.24866,3.77363 1.06446,4.7168 1.31303,0.94317 4.01255,1.41406 8.09961,1.41406 3.77274,0 8.16772,-0.55002 13.18554,-1.65039 l -2.00586,7.31055 c -4.93675,0.99555 -10.05158,1.49218 -15.34375,1.49218 -13.46634,0 -19.07094,-4.11333 -16.8125,-12.33984 l 3.75586,-13.67773 c 1.30896,-4.76826 3.77733,-8.22471 7.40625,-10.37305 3.68139,-2.14832 8.71671,-3.22266 15.10938,-3.22266 z m -247.48242,0.78516 h 11.47461 l -10.44141,38.04297 h -11.47656 z m 84.41797,6.28906 c -2.09603,0 -3.68579,0.15631 -4.76758,0.4707 -1.08198,0.31439 -1.91548,0.86444 -2.49805,1.65039 -0.51576,0.73357 -0.97411,1.83558 -1.37695,3.30274 l -3.99219,14.54101 c -0.44602,1.62436 -0.61293,2.80159 -0.5,3.53516 0.17973,0.68118 0.7513,1.17975 1.71289,1.49414 0.97605,0.26199 2.66783,0.39258 5.07812,0.39258 2.25317,0 3.97555,-0.15827 5.16211,-0.47266 1.23913,-0.31439 2.16138,-0.81105 2.76758,-1.49218 0.67291,-0.73359 1.18936,-1.7545 1.54883,-3.06446 l 4.20898,-15.32617 c 0.38828,-1.41477 0.46461,-2.46337 0.23243,-3.14453 -0.21781,-0.73359 -0.8921,-1.23215 -2.02539,-1.49414 -1.1332,-0.262 -2.98335,-0.39258 -5.55078,-0.39258 z m 160.96679,0 c -2.77724,0 -4.72413,0.31458 -5.83984,0.94336 -1.18253,0.68116 -1.94066,1.62297 -2.27149,2.82813 l -1.50781,5.5039 h 13.75391 l 1.50976,-5.5039 c 0.34529,-1.25755 0.0807,-2.19935 -0.79492,-2.82813 -0.82287,-0.62878 -2.43939,-0.94336 -4.84961,-0.94336 z m -119.78906,14.61914 c -1.78164,0 -3.07342,0.13059 -3.87891,0.39258 -0.0167,0.004 -0.0284,0.0168 -0.0449,0.0215 -0.004,0.001 -0.006,0.005 -0.01,0.006 -0.37952,0.10824 -0.72466,0.2722 -1.02735,0.50391 -0.30539,0.23378 -0.57407,0.52589 -0.80078,0.88476 -0.44904,0.68118 -0.91714,1.91184 -1.40625,3.69336 -0.47475,1.72914 -0.67464,2.93407 -0.59961,3.61524 0.0746,0.68118 0.45095,1.12633 1.12695,1.33594 0.72848,0.20959 2.06124,0.31445 4,0.31445 2.30543,0 3.97888,-0.0772 5.01758,-0.23438 0.7624,-0.10481 1.30161,-0.26305 1.6211,-0.47265 0.37194,-0.20958 0.72735,-0.54991 1.0664,-1.02149 0.31033,-0.36679 0.56816,-0.91681 0.76953,-1.65039 l 2.02735,-7.38867 z M 67.404297,311.32812 c -0.06123,0.3065 -0.136599,0.60938 -0.197266,0.91602 l -4.060547,20.95898 c -2.741045,13.75359 3.268712,26.49535 13.023438,33.47461 9.754632,6.97965 23.701054,8.47068 35.582028,1.25782 l 43.72461,-26.52344 C 118.96507,334.47069 89.462417,323.98188 67.404297,311.32812 Z" /></g></g></svg>
