<?xml version="1.0" encoding="UTF-8"?>
<svg width="128" height="128" version="1.1" viewBox="0 0 33.867 33.867" xmlns="http://www.w3.org/2000/svg">
<g transform="translate(-1.1156 2.8582)" stroke="#1a1a1a" stroke-linecap="round" stroke-linejoin="round">
<path d="m13.952 5.5733c0.1189-0.93676 0.77503-1.6426 1.43-2.2733 0.38912-0.37471 0.62422-0.62811 1.1-0.88 1.5766-0.83466 2.771-0.42136 4.0333 0.69667 0.50459 0.44693 0.70636 0.62165 1.0633 1.1733 0.96765 1.4955 0.55549 2.3404-0.14667 3.85-0.32616 0.70125-0.69834 1.3791-1.1367 2.0167-0.47007 0.68375-1.0553 1.271-1.54 1.9433-0.20617 0.28598-0.39111 0.58667-0.58667 0.88-0.42478 0.63717-0.89741 1.2767-1.21 1.98-0.36563 0.82266-0.54629 1.6465-0.69667 2.53-0.18045 1.0601-0.32624 2.1115-0.25667 3.19 0.04662 0.72258 0.36404 1.3488 0.58667 2.0167" fill="none" stroke-width="1.438" style="paint-order:normal"/>
<path d="m17.942 25.729a0.63785 0.63785 0 0 1-0.63785 0.63785 0.63785 0.63785 0 0 1-0.63785-0.63785 0.63785 0.63785 0 0 1 0.63785-0.63785 0.63785 0.63785 0 0 1 0.63785 0.63785z" stroke-width="1.0423"/>
</g>
</svg>
