<svg width="36" height="30" viewBox="0 0 36 30" fill="none" xmlns="http://www.w3.org/2000/svg">
<circle cx="18" cy="15" r="11" fill="#AFC1D1"/>
<path d="M5 19L0 15L4.91119 11.071L5 19Z" fill="#AFC1D1"/>
<path d="M31 19L36 15L31.0888 11.071L31 19Z" fill="#AFC1D1"/>
<path fill-rule="evenodd" clip-rule="evenodd" d="M29.5356 21C27.3676 25.1598 23.0155 28 18 28C12.9846 28 8.63251 25.1598 6.46446 21H4.24817C6.56284 26.2977 11.8491 30 18 30C24.151 30 29.4372 26.2977 31.7519 21H29.5356ZM6.46446 9C8.63251 4.84022 12.9846 2 18 2C23.0155 2 27.3676 4.84022 29.5356 9H31.7519C29.4372 3.70229 24.151 0 18 0C11.8491 0 6.56284 3.70229 4.24817 9H6.46446Z" fill="#AFC1D1"/>
<path d="M14.4723 21H21.9212V18.9716H16.9325V9.36364H14.4723V21Z" fill="#1C1F2A"/>
</svg>
