<svg width="20" height="20" viewBox="0 0 20 20" fill="none" xmlns="http://www.w3.org/2000/svg">
<g clip-path="url(#clip0_1_439)">
<path d="M9.9995 20C15.5221 20 19.999 15.5228 19.999 10C19.999 4.47715 15.5221 0 9.9995 0C4.47693 0 0 4.47715 0 10C0 15.5228 4.47693 20 9.9995 20Z" fill="#AFC1D1"/>
<path d="M12.5206 10.7598C12.9405 10.7598 13.2924 10.5898 13.5383 10.2689C13.8042 9.92202 13.9441 9.40218 13.9441 8.76537C13.9441 6.92292 13.3193 6.11816 11.372 5.45036C10.7552 5.24142 9.36772 4.81055 8.32509 4.59962V14.7226L10.3824 15.3754V6.84594C10.3824 6.3181 10.6783 5.9912 11.0551 6.11616C11.6189 6.27212 11.6189 6.91092 11.6189 7.15185V10.5448C11.9388 10.6868 12.2417 10.7598 12.5206 10.7598Z" fill="#1C1F2A"/>
<path d="M16.9871 12.8691C17.076 12.7572 17.104 12.6412 17.069 12.5262C17.026 12.3853 16.8421 12.1134 16.1044 11.8794C15.1867 11.5315 13.9281 11.3856 12.8975 11.4965C11.9028 11.6065 11.1821 11.8584 11.1741 11.8614L11.1291 11.8764V12.9721L13.4533 12.1534C13.8991 11.9934 14.5889 11.9574 14.9618 12.0794C15.2297 12.1673 15.2876 12.3083 15.2886 12.4113C15.2896 12.5342 15.2097 12.7092 14.8188 12.8491L11.1291 14.1647V15.2094L16.0774 13.433C16.0834 13.431 16.7341 13.188 16.9871 12.8691Z" fill="#1C1F2A"/>
<path d="M7.56835 10.9267L4.38946 12.0567C4.37846 12.0607 3.58674 12.3237 3.1299 12.6617C2.96796 12.7817 2.89498 12.9297 2.92197 13.0787C2.97296 13.3567 3.33683 13.6157 3.89363 13.7727C5.05823 14.1577 6.2798 14.2557 7.46039 14.0617L7.56735 14.0437V13.1597L6.60269 13.5097C6.15684 13.6697 5.46608 13.7057 5.09321 13.5837C4.82531 13.4957 4.76733 13.3547 4.76633 13.2517C4.76433 13.1287 4.8453 12.9537 5.23716 12.8127L7.56835 11.9777V10.9267Z" fill="#1C1F2A"/>
</g>
<defs>
<clipPath id="clip0_1_439">
<rect width="20" height="20" fill="white"/>
</clipPath>
</defs>
</svg>
