<svg width="20" height="25" viewBox="0 0 20 25" fill="none" xmlns="http://www.w3.org/2000/svg">
<g clip-path="url(#clip0_1_299)">
<path d="M1.715 3.815C1.164 3.815 0.738 3.653 0.444 3.331C0.146 3.008 0 2.543 0 1.937C0 1.635 0.037 1.365 0.111 1.124C0.187 0.884 0.299 0.68 0.445 0.514C0.591 0.347 0.771 0.219 0.984 0.132C1.195 0.043 1.439 0 1.715 0C1.988 0 2.233 0.043 2.445 0.132C2.658 0.219 2.836 0.348 2.98 0.517C3.123 0.685 3.232 0.89 3.309 1.133C3.385 1.375 3.422 1.648 3.422 1.953C3.422 2.569 3.276 3.035 2.983 3.347C2.69 3.659 2.268 3.815 1.715 3.815ZM1.715 3.174C1.848 3.174 1.975 3.15 2.092 3.101C2.211 3.053 2.315 2.979 2.403 2.881C2.491 2.782 2.559 2.655 2.61 2.501C2.66 2.347 2.684 2.165 2.684 1.953C2.684 1.529 2.602 1.208 2.438 0.99C2.271 0.771 2.031 0.662 1.715 0.662C1.4 0.662 1.158 0.771 0.99 0.99C0.82 1.209 0.736 1.53 0.736 1.953C0.736 2.376 0.822 2.685 0.992 2.881C1.162 3.077 1.404 3.174 1.715 3.174Z" fill="#AFC1D1"/>
<path d="M3.625 3.691V0.117996H5.203C5.379 0.117996 5.535 0.146996 5.676 0.205996C5.817 0.264996 5.936 0.347996 6.037 0.453996C6.137 0.559996 6.215 0.682996 6.267 0.822996C6.32 0.962996 6.35 1.114 6.35 1.275C6.35 1.437 6.321 1.586 6.268 1.725C6.215 1.862 6.137 1.98 6.037 2.079C5.936 2.178 5.816 2.255 5.676 2.311C5.536 2.367 5.379 2.395 5.203 2.395H4.373V3.691H3.625ZM5.084 1.787C5.299 1.787 5.455 1.737 5.549 1.639C5.645 1.54 5.691 1.411 5.691 1.253C5.691 1.102 5.644 0.978996 5.548 0.880996C5.454 0.784996 5.298 0.735996 5.083 0.735996H4.373V1.786H5.084V1.787Z" fill="#AFC1D1"/>
<path d="M7.445 3.691V0.741996H6.369V0.117996H9.275V0.741996H8.193V3.691H7.445Z" fill="#AFC1D1"/>
<path d="M9.42599 3.691V0.117996H10.174V3.691H9.42599Z" fill="#AFC1D1"/>
<path d="M12.088 3.815C11.537 3.815 11.113 3.653 10.817 3.331C10.522 3.008 10.374 2.543 10.374 1.937C10.374 1.635 10.411 1.365 10.487 1.124C10.561 0.884 10.673 0.68 10.819 0.514C10.967 0.347 11.147 0.219 11.358 0.132C11.57 0.043 11.813 0 12.088 0C12.361 0 12.606 0.043 12.818 0.132C13.031 0.219 13.209 0.348 13.353 0.517C13.496 0.685 13.607 0.89 13.681 1.133C13.757 1.375 13.794 1.648 13.794 1.953C13.794 2.569 13.648 3.035 13.355 3.347C13.064 3.659 12.643 3.815 12.088 3.815ZM12.088 3.174C12.223 3.174 12.348 3.15 12.465 3.101C12.584 3.053 12.688 2.979 12.776 2.881C12.864 2.782 12.932 2.655 12.983 2.501C13.034 2.346 13.059 2.164 13.059 1.953C13.059 1.529 12.975 1.208 12.811 0.99C12.645 0.771 12.405 0.662 12.088 0.662C11.774 0.662 11.531 0.771 11.363 0.99C11.195 1.209 11.111 1.53 11.111 1.953C11.111 2.376 11.195 2.685 11.365 2.881C11.535 3.077 11.777 3.174 12.088 3.174Z" fill="#AFC1D1"/>
<path d="M16.223 3.691L14.694 1.291V3.691H14V0.117996H14.791L16.211 2.415V0.117996H16.91V3.691H16.223Z" fill="#AFC1D1"/>
<path d="M19.176 1.173C19.156 0.99 19.092 0.853 18.977 0.764C18.862 0.674 18.69 0.629 18.461 0.629C18.037 0.629 17.826 0.775 17.826 1.065C17.826 1.169 17.869 1.256 17.957 1.326C18.045 1.397 18.186 1.455 18.379 1.501C18.609 1.555 18.807 1.605 18.977 1.652C19.145 1.698 19.299 1.752 19.44 1.813C19.518 1.846 19.594 1.886 19.663 1.935C19.733 1.983 19.792 2.043 19.841 2.115C19.89 2.187 19.929 2.273 19.956 2.373C19.984 2.473 20 2.595 20 2.738C20 2.91 19.963 3.063 19.891 3.196C19.82 3.328 19.723 3.44 19.6 3.532C19.479 3.623 19.334 3.693 19.17 3.742C19.006 3.79 18.832 3.815 18.649 3.815C18.129 3.815 17.737 3.714 17.475 3.513C17.213 3.313 17.077 3.015 17.061 2.62H17.784C17.786 2.803 17.86 2.947 18.007 3.053C18.152 3.158 18.333 3.212 18.552 3.212C18.79 3.212 18.968 3.169 19.091 3.083C19.212 2.998 19.275 2.88 19.275 2.733C19.275 2.675 19.267 2.623 19.252 2.574C19.238 2.526 19.211 2.482 19.17 2.442C19.127 2.402 19.072 2.368 19 2.337C18.928 2.306 18.834 2.279 18.721 2.254C18.448 2.197 18.211 2.138 18.012 2.079C17.815 2.02 17.651 1.947 17.522 1.859C17.391 1.771 17.295 1.664 17.235 1.539C17.174 1.413 17.143 1.254 17.143 1.06C17.143 0.913 17.172 0.775 17.225 0.646C17.278 0.517 17.362 0.405 17.473 0.31C17.584 0.215 17.721 0.14 17.883 0.084C18.045 0.027 18.238 0 18.461 0C18.676 0 18.869 0.027 19.041 0.083C19.213 0.138 19.361 0.217 19.484 0.319C19.609 0.422 19.705 0.545 19.773 0.691C19.839 0.837 19.878 0.997 19.886 1.173H19.176Z" fill="#AFC1D1"/>
<path d="M16.318 18.638C16.318 21.704 13.49 24.188 9.99999 24.188C6.50999 24.188 3.67999 21.705 3.67999 18.638V9.759C3.67999 6.695 6.50999 4.21 9.99999 4.21C13.49 4.21 16.318 6.694 16.318 9.759V18.638Z" fill="#AFC1D1"/>
</g>
<defs>
<clipPath id="clip0_1_299">
<rect width="20" height="24.188" fill="white"/>
</clipPath>
</defs>
</svg>
