<svg width="34" height="28" viewBox="0 0 34 28" fill="none" xmlns="http://www.w3.org/2000/svg">
<rect x="13" y="12" width="8" height="16" rx="4" fill="#AFC1D1"/>
<path d="M6.14242 5.09091C6.14242 3.21023 4.99469 2.10227 3.46912 2.10227C1.94071 2.10227 0.795824 3.21023 0.795824 5.09091C0.795824 6.96875 1.94071 8.07955 3.46912 8.07955C4.99469 8.07955 6.14242 6.97159 6.14242 5.09091ZM5.08276 5.09091C5.08276 6.41477 4.41798 7.13352 3.46912 7.13352C2.5231 7.13352 1.85548 6.41477 1.85548 5.09091C1.85548 3.76705 2.5231 3.0483 3.46912 3.0483C4.41798 3.0483 5.08276 3.76705 5.08276 5.09091ZM6.65886 8H7.71284V6.03409H8.82648C10.1702 6.03409 10.8918 5.22727 10.8918 4.10795C10.8918 2.99716 10.1788 2.18182 8.84068 2.18182H6.65886V8ZM7.71284 5.16761V3.0625H8.67875C9.46852 3.0625 9.81796 3.48864 9.81796 4.10795C9.81796 4.72727 9.46852 5.16761 8.68443 5.16761H7.71284ZM11.0716 3.06534H12.8699V8H13.9154V3.06534H15.7137V2.18182H11.0716V3.06534ZM17.1825 2.18182H16.1286V8H17.1825V2.18182ZM23.0427 5.09091C23.0427 3.21023 21.895 2.10227 20.3694 2.10227C18.841 2.10227 17.6961 3.21023 17.6961 5.09091C17.6961 6.96875 18.841 8.07955 20.3694 8.07955C21.895 8.07955 23.0427 6.97159 23.0427 5.09091ZM21.9831 5.09091C21.9831 6.41477 21.3183 7.13352 20.3694 7.13352C19.4234 7.13352 18.7558 6.41477 18.7558 5.09091C18.7558 3.76705 19.4234 3.0483 20.3694 3.0483C21.3183 3.0483 21.9831 3.76705 21.9831 5.09091ZM28.3404 2.18182H27.2921V6.14773H27.241L24.5024 2.18182H23.5592V8H24.6132V4.03693H24.6614L27.4029 8H28.3404V2.18182ZM32.1708 3.78125H33.185C33.1651 2.7983 32.327 2.10227 31.0884 2.10227C29.8668 2.10227 28.9492 2.78977 28.952 3.81818C28.952 4.65341 29.5458 5.13352 30.5032 5.38068L31.1651 5.55114C31.793 5.71023 32.2077 5.90625 32.2106 6.35795C32.2077 6.85511 31.7361 7.1875 31.0486 7.1875C30.3895 7.1875 29.8782 6.89205 29.8356 6.28125H28.7986C28.8413 7.4375 29.702 8.08807 31.0572 8.08807C32.452 8.08807 33.2617 7.39205 33.2645 6.36648C33.2617 5.35795 32.4293 4.89773 31.5543 4.69034L31.0089 4.55398C30.5316 4.44034 30.0145 4.23864 30.0202 3.75284C30.0231 3.31534 30.4151 2.99432 31.0742 2.99432C31.702 2.99432 32.1168 3.28693 32.1708 3.78125Z" fill="#AFC1D1"/>
</svg>
