<svg width="32" height="32" viewBox="0 0 32 32" fill="none" xmlns="http://www.w3.org/2000/svg">
<g clip-path="url(#clip0_1_425)">
<path d="M15.9992 31.9984C24.8353 31.9984 31.9984 24.8353 31.9984 15.9992C31.9984 7.16309 24.8353 0 15.9992 0C7.16309 0 0 7.16309 0 15.9992C0 24.8353 7.16309 31.9984 15.9992 31.9984Z" fill="#AFC1D1"/>
<path d="M20.0331 17.2148C20.7048 17.2148 21.2678 16.9429 21.6613 16.4294C22.0867 15.8744 22.3107 15.0427 22.3107 14.0239C22.3107 11.0761 21.311 9.78857 18.1953 8.72015C17.2084 8.38586 14.9884 7.6965 13.3202 7.35902V23.555L16.6119 24.5994V10.953C16.6119 10.1085 17.0853 9.58544 17.6883 9.78537C18.5904 10.0349 18.5904 11.0569 18.5904 11.4424V16.8709C19.1022 17.098 19.5868 17.2148 20.0331 17.2148Z" fill="#1C1F2A"/>
<path d="M27.1793 20.5896C27.3216 20.4105 27.3664 20.2249 27.3104 20.041C27.2416 19.8155 26.9473 19.3804 25.767 19.0061C24.2987 18.4495 22.285 18.216 20.636 18.3936C19.0445 18.5695 17.8913 18.9726 17.8785 18.9774L17.8065 19.0013V20.7543L21.5252 19.4444C22.2386 19.1885 23.3422 19.1309 23.9388 19.326C24.3675 19.4668 24.4602 19.6923 24.4618 19.857C24.4634 20.0538 24.3355 20.3337 23.7101 20.5576L17.8065 22.6625V24.3339L25.7238 21.4917C25.7334 21.4885 26.7746 21.0998 27.1793 20.5896Z" fill="#1C1F2A"/>
<path d="M12.1093 17.4819L7.02313 19.2893C7.00553 19.2956 5.73878 19.7163 5.00783 20.2569C4.74872 20.4488 4.63196 20.6856 4.67515 20.9239C4.75672 21.3685 5.33892 21.7828 6.2298 22.0339C8.09315 22.6497 10.0477 22.8064 11.9366 22.4961L12.1077 22.4673V21.0534L10.5643 21.6132C9.85094 21.8691 8.74572 21.9267 8.14913 21.7316C7.72048 21.5908 7.62771 21.3653 7.62612 21.2006C7.62292 21.0038 7.75247 20.7239 8.37945 20.4984L12.1093 19.1629V17.4819Z" fill="#1C1F2A"/>
</g>
<defs>
<clipPath id="clip0_1_425">
<rect width="32" height="31.9984" fill="white"/>
</clipPath>
</defs>
</svg>
