<svg width="26" height="24" viewBox="0 0 26 24" fill="none" xmlns="http://www.w3.org/2000/svg">
<path d="M23.5976 0H5.72305C4.63655 0 3.90452 1.12633 4.22779 2.16363C6.53077 9.55327 4.04508 16.9286 1.70661 21.114C1.1824 22.0522 1.67239 23.2923 2.73134 23.476C18.9394 26.2874 24.3096 17.1127 24.9519 11.9472C25.4366 8.04839 25.2208 3.54618 25.0638 1.34817C25.009 0.580859 24.3669 0 23.5976 0Z" fill="#D6E1F6"/>
<mask id="path-2-outside-1_2_416" maskUnits="userSpaceOnUse" x="8.375" y="3.5" width="14" height="11" fill="black">
<rect fill="white" x="8.375" y="3.5" width="14" height="11"/>
<path d="M14.7126 13.5H9.396V4.57251H11.4069V11.8689H14.7126V13.5ZM21.3429 6.20984H18.7966V13.5H16.7795V6.20984H14.2457V4.57251H21.3429V6.20984Z"/>
</mask>
<path d="M14.7126 13.5H9.396V4.57251H11.4069V11.8689H14.7126V13.5ZM21.3429 6.20984H18.7966V13.5H16.7795V6.20984H14.2457V4.57251H21.3429V6.20984Z" fill="#1C212A"/>
<path d="M14.7126 13.5V13.575H14.7876V13.5H14.7126ZM9.396 13.5H9.321V13.575H9.396V13.5ZM9.396 4.57251V4.49751H9.321V4.57251H9.396ZM11.4069 4.57251H11.4819V4.49751H11.4069V4.57251ZM11.4069 11.8689H11.3319V11.9439H11.4069V11.8689ZM14.7126 11.8689H14.7876V11.7939H14.7126V11.8689ZM14.7126 13.425H9.396V13.575H14.7126V13.425ZM9.471 13.5V4.57251H9.321V13.5H9.471ZM9.396 4.64751H11.4069V4.49751H9.396V4.64751ZM11.3319 4.57251V11.8689H11.4819V4.57251H11.3319ZM11.4069 11.9439H14.7126V11.7939H11.4069V11.9439ZM14.6376 11.8689V13.5H14.7876V11.8689H14.6376ZM21.3429 6.20984V6.28484H21.4179V6.20984H21.3429ZM18.7966 6.20984V6.13484H18.7216V6.20984H18.7966ZM18.7966 13.5V13.575H18.8716V13.5H18.7966ZM16.7795 13.5H16.7045V13.575H16.7795V13.5ZM16.7795 6.20984H16.8545V6.13484H16.7795V6.20984ZM14.2457 6.20984H14.1707V6.28484H14.2457V6.20984ZM14.2457 4.57251V4.49751H14.1707V4.57251H14.2457ZM21.3429 4.57251H21.4179V4.49751H21.3429V4.57251ZM21.3429 6.13484H18.7966V6.28484H21.3429V6.13484ZM18.7216 6.20984V13.5H18.8716V6.20984H18.7216ZM18.7966 13.425H16.7795V13.575H18.7966V13.425ZM16.8545 13.5V6.20984H16.7045V13.5H16.8545ZM16.7795 6.13484H14.2457V6.28484H16.7795V6.13484ZM14.3207 6.20984V4.57251H14.1707V6.20984H14.3207ZM14.2457 4.64751H21.3429V4.49751H14.2457V4.64751ZM21.2679 4.57251V6.20984H21.4179V4.57251H21.2679Z" fill="#1C212A" mask="url(#path-2-outside-1_2_416)"/>
</svg>
