<svg width="30" height="18" viewBox="0 0 30 18" fill="none" xmlns="http://www.w3.org/2000/svg">
<path d="M0.420124 7.66851L0.0839085 15.3364C0.0381739 16.3794 0.871444 17.25 1.91548 17.25H25.0454C25.9009 17.25 26.6427 16.6583 26.8329 15.8242L28.984 6.38982C29.1456 5.68091 28.8731 4.94347 28.2892 4.51012L23.7495 1.14064C23.4619 0.927171 23.1159 0.801354 22.758 0.786081C12.4688 0.346928 4.4908 4.01705 1.13454 6.33045C0.694208 6.63396 0.443551 7.13423 0.420124 7.66851Z" fill="#D6E1F6"/>
<mask id="path-2-outside-1_2_404" maskUnits="userSpaceOnUse" x="9.53534" y="4.25" width="15" height="11" fill="black">
<rect fill="white" x="9.53534" y="4.25" width="15" height="11"/>
<path d="M15.873 14.25H10.5563V5.32251H12.5672V12.6189H15.873V14.25ZM17.0807 14.25V5.32251H20.3305C21.3266 5.32251 22.0923 5.50513 22.6277 5.87036C23.1631 6.2356 23.4308 6.75024 23.4308 7.41431C23.4308 7.89575 23.2669 8.31702 22.939 8.6781C22.6153 9.03918 22.2003 9.29028 21.6939 9.4314V9.4563C22.3289 9.53516 22.8353 9.76965 23.213 10.1598C23.5948 10.5499 23.7857 11.0251 23.7857 11.5854C23.7857 12.4031 23.4931 13.0526 22.9079 13.5341C22.3227 14.0114 21.5237 14.25 20.511 14.25H17.0807ZM19.0916 6.8042V8.9209H19.9756C20.3907 8.9209 20.7165 8.82129 20.9531 8.62207C21.1938 8.4187 21.3141 8.14062 21.3141 7.78784C21.3141 7.13208 20.8244 6.8042 19.8449 6.8042H19.0916ZM19.0916 10.415V12.7683H20.1811C20.6459 12.7683 21.0091 12.6604 21.2706 12.4446C21.5362 12.2288 21.669 11.9341 21.669 11.5605C21.669 11.2036 21.5383 10.9235 21.2768 10.7201C21.0195 10.5167 20.6584 10.415 20.1935 10.415H19.0916Z"/>
</mask>
<path d="M15.873 14.25H10.5563V5.32251H12.5672V12.6189H15.873V14.25ZM17.0807 14.25V5.32251H20.3305C21.3266 5.32251 22.0923 5.50513 22.6277 5.87036C23.1631 6.2356 23.4308 6.75024 23.4308 7.41431C23.4308 7.89575 23.2669 8.31702 22.939 8.6781C22.6153 9.03918 22.2003 9.29028 21.6939 9.4314V9.4563C22.3289 9.53516 22.8353 9.76965 23.213 10.1598C23.5948 10.5499 23.7857 11.0251 23.7857 11.5854C23.7857 12.4031 23.4931 13.0526 22.9079 13.5341C22.3227 14.0114 21.5237 14.25 20.511 14.25H17.0807ZM19.0916 6.8042V8.9209H19.9756C20.3907 8.9209 20.7165 8.82129 20.9531 8.62207C21.1938 8.4187 21.3141 8.14062 21.3141 7.78784C21.3141 7.13208 20.8244 6.8042 19.8449 6.8042H19.0916ZM19.0916 10.415V12.7683H20.1811C20.6459 12.7683 21.0091 12.6604 21.2706 12.4446C21.5362 12.2288 21.669 11.9341 21.669 11.5605C21.669 11.2036 21.5383 10.9235 21.2768 10.7201C21.0195 10.5167 20.6584 10.415 20.1935 10.415H19.0916Z" fill="#1C212A"/>
<path d="M15.873 14.25V14.325H15.948V14.25H15.873ZM10.5563 14.25H10.4813V14.325H10.5563V14.25ZM10.5563 5.32251V5.24751H10.4813V5.32251H10.5563ZM12.5672 5.32251H12.6422V5.24751H12.5672V5.32251ZM12.5672 12.6189H12.4922V12.6939H12.5672V12.6189ZM15.873 12.6189H15.948V12.5439H15.873V12.6189ZM15.873 14.175H10.5563V14.325H15.873V14.175ZM10.6313 14.25V5.32251H10.4813V14.25H10.6313ZM10.5563 5.39751H12.5672V5.24751H10.5563V5.39751ZM12.4922 5.32251V12.6189H12.6422V5.32251H12.4922ZM12.5672 12.6939H15.873V12.5439H12.5672V12.6939ZM15.798 12.6189V14.25H15.948V12.6189H15.798ZM17.0807 14.25H17.0057V14.325H17.0807V14.25ZM17.0807 5.32251V5.24751H17.0057V5.32251H17.0807ZM22.939 8.6781L22.8835 8.62768L22.8832 8.62803L22.939 8.6781ZM21.6939 9.4314L21.6738 9.35915L21.6189 9.37444V9.4314H21.6939ZM21.6939 9.4563H21.6189V9.52256L21.6847 9.53073L21.6939 9.4563ZM23.213 10.1598L23.1591 10.212L23.1594 10.2122L23.213 10.1598ZM22.9079 13.5341L22.9553 13.5922L22.9555 13.592L22.9079 13.5341ZM19.0916 6.8042V6.7292H19.0166V6.8042H19.0916ZM19.0916 8.9209H19.0166V8.9959H19.0916V8.9209ZM20.9531 8.62207L21.0014 8.67944L21.0015 8.67936L20.9531 8.62207ZM19.0916 10.415V10.34H19.0166V10.415H19.0916ZM19.0916 12.7683H19.0166V12.8433H19.0916V12.7683ZM21.2706 12.4446L21.2233 12.3864L21.2228 12.3867L21.2706 12.4446ZM21.2768 10.7201L21.2303 10.7789L21.2307 10.7793L21.2768 10.7201ZM17.1557 14.25V5.32251H17.0057V14.25H17.1557ZM17.0807 5.39751H20.3305V5.24751H17.0807V5.39751ZM20.3305 5.39751C21.3191 5.39751 22.0676 5.57902 22.5855 5.93232L22.67 5.8084C22.1171 5.43123 21.3341 5.24751 20.3305 5.24751V5.39751ZM22.5855 5.93232C23.0998 6.28317 23.3558 6.77431 23.3558 7.41431H23.5058C23.5058 6.72618 23.2265 6.18802 22.67 5.8084L22.5855 5.93232ZM23.3558 7.41431C23.3558 7.87684 23.199 8.2802 22.8835 8.62768L22.9946 8.72852C23.3348 8.35383 23.5058 7.91466 23.5058 7.41431H23.3558ZM22.8832 8.62803C22.5698 8.97758 22.1676 9.22154 21.6738 9.35915L21.714 9.50364C22.233 9.35903 22.6608 9.10079 22.9949 8.72817L22.8832 8.62803ZM21.6189 9.4314V9.4563H21.7689V9.4314H21.6189ZM21.6847 9.53073C22.3059 9.60787 22.7953 9.83623 23.1591 10.212L23.2668 10.1076C22.8752 9.70308 22.352 9.46244 21.7032 9.38187L21.6847 9.53073ZM23.1594 10.2122C23.5271 10.588 23.7107 11.0442 23.7107 11.5854H23.8607C23.8607 11.0061 23.6625 10.5119 23.2666 10.1073L23.1594 10.2122ZM23.7107 11.5854C23.7107 12.3827 23.4266 13.0102 22.8602 13.4761L22.9555 13.592C23.5596 13.095 23.8607 12.4235 23.8607 11.5854H23.7107ZM22.8605 13.4759C22.2926 13.9391 21.5124 14.175 20.511 14.175V14.325C21.5351 14.325 22.3528 14.0836 22.9553 13.5922L22.8605 13.4759ZM20.511 14.175H17.0807V14.325H20.511V14.175ZM19.0166 6.8042V8.9209H19.1666V6.8042H19.0166ZM19.0916 8.9959H19.9756V8.8459H19.0916V8.9959ZM19.9756 8.9959C20.4023 8.9959 20.7473 8.89343 21.0014 8.67944L20.9048 8.5647C20.6857 8.74915 20.3791 8.8459 19.9756 8.8459V8.9959ZM21.0015 8.67936C21.2612 8.45993 21.3891 8.15974 21.3891 7.78784H21.2391C21.2391 8.12151 21.1264 8.37747 20.9047 8.56478L21.0015 8.67936ZM21.3891 7.78784C21.3891 7.43825 21.2568 7.1674 20.9886 6.98779C20.7256 6.81175 20.3407 6.7292 19.8449 6.7292V6.8792C20.3287 6.8792 20.6783 6.96059 20.9051 7.11243C21.1266 7.2607 21.2391 7.48167 21.2391 7.78784H21.3891ZM19.8449 6.7292H19.0916V6.8792H19.8449V6.7292ZM19.0166 10.415V12.7683H19.1666V10.415H19.0166ZM19.0916 12.8433H20.1811V12.6933H19.0916V12.8433ZM20.1811 12.8433C20.6569 12.8433 21.0392 12.7328 21.3183 12.5024L21.2228 12.3867C20.979 12.588 20.6349 12.6933 20.1811 12.6933V12.8433ZM21.3179 12.5028C21.6028 12.2713 21.744 11.9543 21.744 11.5605H21.594C21.594 11.9139 21.4696 12.1862 21.2233 12.3864L21.3179 12.5028ZM21.744 11.5605C21.744 11.1825 21.6042 10.8797 21.3228 10.6609L21.2307 10.7793C21.4724 10.9672 21.594 11.2247 21.594 11.5605H21.744ZM21.3233 10.6613C21.0482 10.4438 20.6684 10.34 20.1935 10.34V10.49C20.6484 10.49 20.9908 10.5896 21.2303 10.7789L21.3233 10.6613ZM20.1935 10.34H19.0916V10.49H20.1935V10.34Z" fill="#1C212A" mask="url(#path-2-outside-1_2_404)"/>
</svg>
