<svg width="30" height="18" viewBox="0 0 30 18" fill="none" xmlns="http://www.w3.org/2000/svg">
<path d="M29.0799 7.66851L29.4161 15.3364C29.4618 16.3794 28.6286 17.25 27.5845 17.25H4.45456C3.59906 17.25 2.85728 16.6583 2.6671 15.8242L0.515989 6.38982C0.354353 5.68091 0.626938 4.94347 1.21079 4.51012L5.75052 1.14064C6.03813 0.927171 6.38412 0.801354 6.74197 0.786081C17.0312 0.346928 25.0092 4.01705 28.3655 6.33045C28.8058 6.63396 29.0564 7.13423 29.0799 7.66851Z" fill="#D6E1F6"/>
<mask id="path-2-outside-1_2_408" maskUnits="userSpaceOnUse" x="5.22327" y="4.25" width="17" height="11" fill="black">
<rect fill="white" x="5.22327" y="4.25" width="17" height="11"/>
<path d="M13.7336 14.25H11.424L10.0356 11.9528C9.93188 11.7784 9.83228 11.6228 9.73682 11.4858C9.64136 11.3489 9.54382 11.2327 9.44421 11.1372C9.34875 11.0376 9.24707 10.9629 9.13916 10.9131C9.0354 10.8591 8.92126 10.8322 8.79675 10.8322H8.25513V14.25H6.24426V5.32251H9.43176C11.5983 5.32251 12.6815 6.13184 12.6815 7.75049C12.6815 8.06177 12.6338 8.35022 12.5383 8.61584C12.4429 8.87732 12.308 9.11389 12.1337 9.32556C11.9594 9.53723 11.7477 9.71985 11.4987 9.87341C11.2538 10.027 10.9799 10.1473 10.6769 10.2345V10.2594C10.8097 10.3009 10.9384 10.3694 11.0629 10.4648C11.1874 10.5562 11.3077 10.6641 11.424 10.7886C11.5402 10.9131 11.6501 11.048 11.7539 11.1932C11.8618 11.3344 11.9594 11.4734 12.0465 11.6104L13.7336 14.25ZM8.25513 6.8291V9.31311H9.12671C9.55835 9.31311 9.90491 9.1886 10.1664 8.93958C10.432 8.6864 10.5648 8.37305 10.5648 7.99951C10.5648 7.21924 10.0979 6.8291 9.16406 6.8291H8.25513ZM14.5741 14.25V5.32251H17.8239C18.8199 5.32251 19.5857 5.50513 20.1211 5.87036C20.6565 6.2356 20.9242 6.75024 20.9242 7.41431C20.9242 7.89575 20.7603 8.31702 20.4324 8.6781C20.1086 9.03918 19.6936 9.29028 19.1873 9.4314V9.4563C19.8223 9.53516 20.3286 9.76965 20.7063 10.1598C21.0881 10.5499 21.2791 11.0251 21.2791 11.5854C21.2791 12.4031 20.9865 13.0526 20.4012 13.5341C19.816 14.0114 19.0171 14.25 18.0044 14.25H14.5741ZM16.585 6.8042V8.9209H17.469C17.884 8.9209 18.2098 8.82129 18.4464 8.62207C18.6871 8.4187 18.8075 8.14062 18.8075 7.78784C18.8075 7.13208 18.3177 6.8042 17.3383 6.8042H16.585ZM16.585 10.415V12.7683H17.6744C18.1393 12.7683 18.5024 12.6604 18.7639 12.4446C19.0295 12.2288 19.1624 11.9341 19.1624 11.5605C19.1624 11.2036 19.0316 10.9235 18.7701 10.7201C18.5128 10.5167 18.1517 10.415 17.6869 10.415H16.585Z"/>
</mask>
<path d="M13.7336 14.25H11.424L10.0356 11.9528C9.93188 11.7784 9.83228 11.6228 9.73682 11.4858C9.64136 11.3489 9.54382 11.2327 9.44421 11.1372C9.34875 11.0376 9.24707 10.9629 9.13916 10.9131C9.0354 10.8591 8.92126 10.8322 8.79675 10.8322H8.25513V14.25H6.24426V5.32251H9.43176C11.5983 5.32251 12.6815 6.13184 12.6815 7.75049C12.6815 8.06177 12.6338 8.35022 12.5383 8.61584C12.4429 8.87732 12.308 9.11389 12.1337 9.32556C11.9594 9.53723 11.7477 9.71985 11.4987 9.87341C11.2538 10.027 10.9799 10.1473 10.6769 10.2345V10.2594C10.8097 10.3009 10.9384 10.3694 11.0629 10.4648C11.1874 10.5562 11.3077 10.6641 11.424 10.7886C11.5402 10.9131 11.6501 11.048 11.7539 11.1932C11.8618 11.3344 11.9594 11.4734 12.0465 11.6104L13.7336 14.25ZM8.25513 6.8291V9.31311H9.12671C9.55835 9.31311 9.90491 9.1886 10.1664 8.93958C10.432 8.6864 10.5648 8.37305 10.5648 7.99951C10.5648 7.21924 10.0979 6.8291 9.16406 6.8291H8.25513ZM14.5741 14.25V5.32251H17.8239C18.8199 5.32251 19.5857 5.50513 20.1211 5.87036C20.6565 6.2356 20.9242 6.75024 20.9242 7.41431C20.9242 7.89575 20.7603 8.31702 20.4324 8.6781C20.1086 9.03918 19.6936 9.29028 19.1873 9.4314V9.4563C19.8223 9.53516 20.3286 9.76965 20.7063 10.1598C21.0881 10.5499 21.2791 11.0251 21.2791 11.5854C21.2791 12.4031 20.9865 13.0526 20.4012 13.5341C19.816 14.0114 19.0171 14.25 18.0044 14.25H14.5741ZM16.585 6.8042V8.9209H17.469C17.884 8.9209 18.2098 8.82129 18.4464 8.62207C18.6871 8.4187 18.8075 8.14062 18.8075 7.78784C18.8075 7.13208 18.3177 6.8042 17.3383 6.8042H16.585ZM16.585 10.415V12.7683H17.6744C18.1393 12.7683 18.5024 12.6604 18.7639 12.4446C19.0295 12.2288 19.1624 11.9341 19.1624 11.5605C19.1624 11.2036 19.0316 10.9235 18.7701 10.7201C18.5128 10.5167 18.1517 10.415 17.6869 10.415H16.585Z" fill="#1C212A"/>
<path d="M13.7336 14.25V14.3325H13.8843L13.8032 14.2056L13.7336 14.25ZM11.424 14.25L11.3533 14.2927L11.3774 14.3325H11.424V14.25ZM10.0356 11.9528L9.96475 11.995L9.96504 11.9954L10.0356 11.9528ZM9.44421 11.1372L9.3846 11.1943L9.38713 11.1968L9.44421 11.1372ZM9.13916 10.9131L9.10106 10.9864L9.10459 10.988L9.13916 10.9131ZM8.25513 10.8322V10.7497H8.17263V10.8322H8.25513ZM8.25513 14.25V14.3325H8.33763V14.25H8.25513ZM6.24426 14.25H6.16176V14.3325H6.24426V14.25ZM6.24426 5.32251V5.24001H6.16176V5.32251H6.24426ZM12.5383 8.61584L12.6158 8.64414L12.616 8.64375L12.5383 8.61584ZM11.4987 9.87341L11.4554 9.80319L11.4548 9.80352L11.4987 9.87341ZM10.6769 10.2345L10.6541 10.1552L10.5944 10.1724V10.2345H10.6769ZM10.6769 10.2594H10.5944V10.3201L10.6523 10.3381L10.6769 10.2594ZM11.0629 10.4648L11.0127 10.5303L11.0141 10.5314L11.0629 10.4648ZM11.7539 11.1932L11.6867 11.2412L11.6884 11.2434L11.7539 11.1932ZM12.0465 11.6104L11.9769 11.6546L11.977 11.6548L12.0465 11.6104ZM8.25513 6.8291V6.7466H8.17263V6.8291H8.25513ZM8.25513 9.31311H8.17263V9.39561H8.25513V9.31311ZM10.1664 8.93958L10.2233 8.99932L10.2233 8.99929L10.1664 8.93958ZM13.7336 14.1675H11.424V14.3325H13.7336V14.1675ZM11.4946 14.2073L10.1063 11.9101L9.96504 11.9954L11.3533 14.2927L11.4946 14.2073ZM10.1065 11.9106C10.002 11.7349 9.9013 11.5775 9.8045 11.4387L9.66913 11.533C9.76326 11.6681 9.8618 11.822 9.96475 11.995L10.1065 11.9106ZM9.8045 11.4387C9.70655 11.2981 9.60556 11.1776 9.5013 11.0776L9.38713 11.1968C9.48209 11.2878 9.57617 11.3996 9.66913 11.533L9.8045 11.4387ZM9.50378 11.0801C9.40231 10.9742 9.29239 10.8929 9.17373 10.8382L9.10459 10.988C9.20175 11.0328 9.2952 11.101 9.38465 11.1943L9.50378 11.0801ZM9.17722 10.8399C9.06095 10.7794 8.93363 10.7497 8.79675 10.7497V10.9147C8.90889 10.9147 9.00985 10.9388 9.1011 10.9863L9.17722 10.8399ZM8.79675 10.7497H8.25513V10.9147H8.79675V10.7497ZM8.17263 10.8322V14.25H8.33763V10.8322H8.17263ZM8.25513 14.1675H6.24426V14.3325H8.25513V14.1675ZM6.32676 14.25V5.32251H6.16176V14.25H6.32676ZM6.24426 5.40501H9.43176V5.24001H6.24426V5.40501ZM9.43176 5.40501C10.5071 5.40501 11.2986 5.60629 11.8197 5.9956C12.3363 6.38153 12.599 6.96141 12.599 7.75049H12.764C12.764 6.92091 12.4852 6.28681 11.9185 5.86341C11.3563 5.44339 10.5229 5.24001 9.43176 5.24001V5.40501ZM12.599 7.75049C12.599 8.05323 12.5526 8.33214 12.4607 8.58794L12.616 8.64375C12.715 8.3683 12.764 8.0703 12.764 7.75049H12.599ZM12.4608 8.58755C12.3685 8.84039 12.2383 9.06877 12.07 9.27312L12.1974 9.37801C12.3777 9.15902 12.5172 8.91425 12.6158 8.64414L12.4608 8.58755ZM12.07 9.27312C11.9018 9.47732 11.6972 9.65407 11.4554 9.80319L11.542 9.94363C11.7982 9.78563 12.0169 9.59714 12.1974 9.37801L12.07 9.27312ZM11.4548 9.80352C11.2171 9.95263 10.9503 10.07 10.6541 10.1552L10.6997 10.3138C11.0094 10.2247 11.2905 10.1013 11.5425 9.94331L11.4548 9.80352ZM10.5944 10.2345V10.2594H10.7594V10.2345H10.5944ZM10.6523 10.3381C10.7747 10.3764 10.8949 10.44 11.0127 10.5303L11.1131 10.3994C10.9818 10.2988 10.8446 10.2254 10.7015 10.1807L10.6523 10.3381ZM11.0141 10.5314C11.134 10.6193 11.2506 10.7237 11.3636 10.8449L11.4843 10.7323C11.3649 10.6044 11.2407 10.493 11.1117 10.3983L11.0141 10.5314ZM11.3636 10.8449C11.4773 10.9666 11.585 11.0987 11.6868 11.2412L11.821 11.1453C11.7153 10.9972 11.603 10.8595 11.4843 10.7323L11.3636 10.8449ZM11.6884 11.2434C11.795 11.3828 11.8911 11.5199 11.9769 11.6546L12.1161 11.5661C12.0276 11.4269 11.9287 11.2859 11.8194 11.1431L11.6884 11.2434ZM11.977 11.6548L13.6641 14.2944L13.8032 14.2056L12.116 11.5659L11.977 11.6548ZM8.17263 6.8291V9.31311H8.33763V6.8291H8.17263ZM8.25513 9.39561H9.12671V9.23061H8.25513V9.39561ZM9.12671 9.39561C9.57513 9.39561 9.94355 9.26573 10.2233 8.99932L10.1095 8.87983C9.86627 9.11147 9.54157 9.23061 9.12671 9.23061V9.39561ZM10.2233 8.99929C10.5056 8.73024 10.6473 8.39516 10.6473 7.99951H10.4823C10.4823 8.35094 10.3584 8.64257 10.1095 8.87986L10.2233 8.99929ZM10.6473 7.99951C10.6473 7.59237 10.5248 7.27336 10.2675 7.0584C10.0131 6.84581 9.64045 6.7466 9.16406 6.7466V6.9116C9.62152 6.9116 9.94924 7.00747 10.1617 7.18501C10.3714 7.36019 10.4823 7.62638 10.4823 7.99951H10.6473ZM9.16406 6.7466H8.25513V6.9116H9.16406V6.7466ZM14.5741 14.25H14.4916V14.3325H14.5741V14.25ZM14.5741 5.32251V5.24001H14.4916V5.32251H14.5741ZM20.4324 8.6781L20.3713 8.62264L20.3709 8.62303L20.4324 8.6781ZM19.1873 9.4314L19.1651 9.35192L19.1048 9.36874V9.4314H19.1873ZM19.1873 9.4563H19.1048V9.52919L19.1771 9.53817L19.1873 9.4563ZM20.7063 10.1598L20.647 10.2172L20.6473 10.2175L20.7063 10.1598ZM20.4012 13.5341L20.4534 13.598L20.4537 13.5978L20.4012 13.5341ZM16.585 6.8042V6.7217H16.5025V6.8042H16.585ZM16.585 8.9209H16.5025V9.0034H16.585V8.9209ZM18.4464 8.62207L18.4996 8.68518L18.4997 8.68509L18.4464 8.62207ZM16.585 10.415V10.3325H16.5025V10.415H16.585ZM16.585 12.7683H16.5025V12.8508H16.585V12.7683ZM18.7639 12.4446L18.7119 12.3805L18.7114 12.381L18.7639 12.4446ZM18.7701 10.7201L18.719 10.7848L18.7195 10.7852L18.7701 10.7201ZM14.6566 14.25V5.32251H14.4916V14.25H14.6566ZM14.5741 5.40501H17.8239V5.24001H14.5741V5.40501ZM17.8239 5.40501C18.8117 5.40501 19.5584 5.58641 20.0746 5.93851L20.1676 5.80221C19.6129 5.42385 18.8282 5.24001 17.8239 5.24001V5.40501ZM20.0746 5.93851C20.5868 6.28793 20.8417 6.77671 20.8417 7.41431H21.0067C21.0067 6.72378 20.7262 6.18326 20.1676 5.80221L20.0746 5.93851ZM20.8417 7.41431C20.8417 7.87495 20.6856 8.27652 20.3713 8.62264L20.4935 8.73356C20.8349 8.35752 21.0067 7.91655 21.0067 7.41431H20.8417ZM20.3709 8.62303C20.0586 8.97142 19.6576 9.21467 19.1651 9.35192L19.2094 9.51087C19.7296 9.3659 20.1587 9.10695 20.4938 8.73317L20.3709 8.62303ZM19.1048 9.4314V9.4563H19.2698V9.4314H19.1048ZM19.1771 9.53817C19.7969 9.61514 20.2847 9.84288 20.647 10.2172L20.7656 10.1024C20.3725 9.69642 19.8476 9.45517 19.1974 9.37443L19.1771 9.53817ZM20.6473 10.2175C21.0136 10.5918 21.1966 11.0461 21.1966 11.5854H21.3616C21.3616 11.0042 21.1626 10.5081 20.7653 10.1021L20.6473 10.2175ZM21.1966 11.5854C21.1966 12.3806 20.9133 13.0059 20.3488 13.4703L20.4537 13.5978C21.0596 13.0993 21.3616 12.4255 21.3616 11.5854H21.1966ZM20.3491 13.4701C19.783 13.9319 19.0046 14.1675 18.0044 14.1675V14.3325C19.0296 14.3325 19.8491 14.0908 20.4534 13.598L20.3491 13.4701ZM18.0044 14.1675H14.5741V14.3325H18.0044V14.1675ZM16.5025 6.8042V8.9209H16.6675V6.8042H16.5025ZM16.585 9.0034H17.469V8.8384H16.585V9.0034ZM17.469 9.0034C17.8968 9.0034 18.2437 8.90064 18.4996 8.68518L18.3933 8.55897C18.176 8.74194 17.8713 8.8384 17.469 8.8384V9.0034ZM18.4997 8.68509C18.7613 8.46406 18.89 8.16165 18.89 7.78784H18.725C18.725 8.1196 18.613 8.37335 18.3932 8.55905L18.4997 8.68509ZM18.89 7.78784C18.89 7.43608 18.7567 7.16273 18.4861 6.98156C18.2213 6.8043 17.8346 6.7217 17.3383 6.7217V6.8867C17.8214 6.8867 18.1693 6.96804 18.3943 7.11866C18.6134 7.26537 18.725 7.48384 18.725 7.78784H18.89ZM17.3383 6.7217H16.585V6.8867H17.3383V6.7217ZM16.5025 10.415V12.7683H16.6675V10.415H16.5025ZM16.585 12.8508H17.6744V12.6858H16.585V12.8508ZM17.6744 12.8508C18.1514 12.8508 18.5355 12.7401 18.8164 12.5082L18.7114 12.381C18.4694 12.5807 18.1272 12.6858 17.6744 12.6858V12.8508ZM18.8159 12.5086C19.1028 12.2756 19.2449 11.9563 19.2449 11.5605H19.0799C19.0799 11.9118 18.9563 12.182 18.7119 12.3806L18.8159 12.5086ZM19.2449 11.5605C19.2449 11.1804 19.1041 10.8753 18.8208 10.655L18.7195 10.7852C18.9591 10.9716 19.0799 11.2268 19.0799 11.5605H19.2449ZM18.8213 10.6554C18.5444 10.4365 18.1627 10.3325 17.6869 10.3325V10.4975C18.1407 10.4975 18.4812 10.5969 18.719 10.7848L18.8213 10.6554ZM17.6869 10.3325H16.585V10.4975H17.6869V10.3325Z" fill="#1C212A" mask="url(#path-2-outside-1_2_408)"/>
</svg>
