<svg width="25" height="24" viewBox="0 0 25 24" fill="none" xmlns="http://www.w3.org/2000/svg">
<path d="M1.9024 0H19.7769C20.8635 0 21.5955 1.12633 21.2722 2.16363C18.9692 9.55327 21.4549 16.9286 23.7934 21.114C24.3176 22.0522 23.8276 23.2923 22.7687 23.476C6.56063 26.2874 1.19037 17.1127 0.548149 11.9472C0.0634232 8.04839 0.279196 3.54618 0.436226 1.34817C0.491043 0.580859 1.13314 0 1.9024 0Z" fill="#D6E1F6"/>
<mask id="path-2-outside-1_2_412" maskUnits="userSpaceOnUse" x="3.0625" y="3.5" width="16" height="11" fill="black">
<rect fill="white" x="3.0625" y="3.5" width="16" height="11"/>
<path d="M11.5729 13.5H9.26318L7.87488 11.2028C7.77112 11.0284 7.67151 10.8728 7.57605 10.7358C7.48059 10.5989 7.38306 10.4827 7.28345 10.3872C7.18799 10.2876 7.0863 10.2129 6.97839 10.1631C6.87463 10.1091 6.7605 10.0822 6.63599 10.0822H6.09436V13.5H4.0835V4.57251H7.271C9.4375 4.57251 10.5208 5.38184 10.5208 7.00049C10.5208 7.31177 10.473 7.60022 10.3776 7.86584C10.2821 8.12732 10.1472 8.36389 9.9729 8.57556C9.79858 8.78723 9.58691 8.96985 9.33789 9.12341C9.09302 9.27698 8.81909 9.39734 8.51611 9.4845V9.5094C8.64893 9.5509 8.77759 9.61938 8.9021 9.71484C9.02661 9.80615 9.14697 9.91406 9.26318 10.0386C9.37939 10.1631 9.48938 10.298 9.59314 10.4432C9.70105 10.5844 9.79858 10.7234 9.88574 10.8604L11.5729 13.5ZM6.09436 6.0791V8.56311H6.96594C7.39758 8.56311 7.74414 8.4386 8.00562 8.18958C8.27124 7.9364 8.40405 7.62305 8.40405 7.24951C8.40405 6.46924 7.93713 6.0791 7.0033 6.0791H6.09436ZM18.421 6.20984H15.8748V13.5H13.8577V6.20984H11.3239V4.57251H18.421V6.20984Z"/>
</mask>
<path d="M11.5729 13.5H9.26318L7.87488 11.2028C7.77112 11.0284 7.67151 10.8728 7.57605 10.7358C7.48059 10.5989 7.38306 10.4827 7.28345 10.3872C7.18799 10.2876 7.0863 10.2129 6.97839 10.1631C6.87463 10.1091 6.7605 10.0822 6.63599 10.0822H6.09436V13.5H4.0835V4.57251H7.271C9.4375 4.57251 10.5208 5.38184 10.5208 7.00049C10.5208 7.31177 10.473 7.60022 10.3776 7.86584C10.2821 8.12732 10.1472 8.36389 9.9729 8.57556C9.79858 8.78723 9.58691 8.96985 9.33789 9.12341C9.09302 9.27698 8.81909 9.39734 8.51611 9.4845V9.5094C8.64893 9.5509 8.77759 9.61938 8.9021 9.71484C9.02661 9.80615 9.14697 9.91406 9.26318 10.0386C9.37939 10.1631 9.48938 10.298 9.59314 10.4432C9.70105 10.5844 9.79858 10.7234 9.88574 10.8604L11.5729 13.5ZM6.09436 6.0791V8.56311H6.96594C7.39758 8.56311 7.74414 8.4386 8.00562 8.18958C8.27124 7.9364 8.40405 7.62305 8.40405 7.24951C8.40405 6.46924 7.93713 6.0791 7.0033 6.0791H6.09436ZM18.421 6.20984H15.8748V13.5H13.8577V6.20984H11.3239V4.57251H18.421V6.20984Z" fill="#1C212A"/>
<path d="M11.5729 13.5V13.575H11.7098L11.6361 13.4596L11.5729 13.5ZM9.26318 13.5L9.19899 13.5388L9.22088 13.575H9.26318V13.5ZM7.87488 11.2028L7.81043 11.2411L7.81069 11.2416L7.87488 11.2028ZM7.28345 10.3872L7.22925 10.4391L7.23155 10.4414L7.28345 10.3872ZM6.97839 10.1631L6.94375 10.2297L6.94696 10.2312L6.97839 10.1631ZM6.09436 10.0822V10.0072H6.01936V10.0822H6.09436ZM6.09436 13.5V13.575H6.16936V13.5H6.09436ZM4.0835 13.5H4.0085V13.575H4.0835V13.5ZM4.0835 4.57251V4.49751H4.0085V4.57251H4.0835ZM10.3776 7.86584L10.448 7.89157L10.4481 7.89121L10.3776 7.86584ZM9.33789 9.12341L9.29852 9.05957L9.29804 9.05987L9.33789 9.12341ZM8.51611 9.4845L8.49538 9.41242L8.44111 9.42803V9.4845H8.51611ZM8.51611 9.5094H8.44111V9.56454L8.49374 9.58099L8.51611 9.5094ZM8.9021 9.71484L8.85646 9.77438L8.85775 9.77532L8.9021 9.71484ZM9.59314 10.4432L9.53208 10.4869L9.53356 10.4888L9.59314 10.4432ZM9.88574 10.8604L9.82247 10.9006L9.82255 10.9007L9.88574 10.8604ZM6.09436 6.0791V6.0041H6.01936V6.0791H6.09436ZM6.09436 8.56311H6.01936V8.63811H6.09436V8.56311ZM8.00562 8.18958L8.05734 8.24389L8.05736 8.24387L8.00562 8.18958ZM11.5729 13.425H9.26318V13.575H11.5729V13.425ZM9.32737 13.4612L7.93907 11.164L7.81069 11.2416L9.19899 13.5388L9.32737 13.4612ZM7.93932 11.1644C7.83483 10.9889 7.73425 10.8317 7.63758 10.693L7.51452 10.7787C7.60876 10.9139 7.7074 11.068 7.81043 11.2411L7.93932 11.1644ZM7.63758 10.693C7.53986 10.5527 7.43918 10.4326 7.33534 10.3331L7.23155 10.4414C7.32693 10.5328 7.42133 10.645 7.51452 10.7787L7.63758 10.693ZM7.3376 10.3353C7.23667 10.23 7.12751 10.1493 7.00982 10.095L6.94696 10.2312C7.0451 10.2765 7.1393 10.3452 7.2293 10.4391L7.3376 10.3353ZM7.013 10.0965C6.89786 10.0367 6.77174 10.0072 6.63599 10.0072V10.1572C6.74925 10.1572 6.85141 10.1816 6.94379 10.2296L7.013 10.0965ZM6.63599 10.0072H6.09436V10.1572H6.63599V10.0072ZM6.01936 10.0822V13.5H6.16936V10.0822H6.01936ZM6.09436 13.425H4.0835V13.575H6.09436V13.425ZM4.1585 13.5V4.57251H4.0085V13.5H4.1585ZM4.0835 4.64751H7.271V4.49751H4.0835V4.64751ZM7.271 4.64751C8.34708 4.64751 9.14048 4.84889 9.66342 5.23959C10.1823 5.62722 10.4458 6.20957 10.4458 7.00049H10.5958C10.5958 6.17275 10.3176 5.54111 9.7532 5.11942C9.19289 4.7008 8.36141 4.49751 7.271 4.49751V4.64751ZM10.4458 7.00049C10.4458 7.30401 10.3992 7.58379 10.307 7.84048L10.4481 7.89121C10.5468 7.61665 10.5958 7.31953 10.5958 7.00049H10.4458ZM10.3071 7.84012C10.2145 8.09374 10.0838 8.32287 9.91501 8.52788L10.0308 8.62324C10.2106 8.40491 10.3497 8.16089 10.448 7.89157L10.3071 7.84012ZM9.91501 8.52788C9.74628 8.73277 9.541 8.91005 9.29852 9.05958L9.37726 9.18725C9.63283 9.02965 9.85089 8.84169 10.0308 8.62324L9.91501 8.52788ZM9.29804 9.05987C9.05962 9.20939 8.79223 9.32703 8.49538 9.41242L8.53685 9.55657C8.84596 9.46765 9.12641 9.34456 9.37774 9.18695L9.29804 9.05987ZM8.44111 9.4845V9.5094H8.59111V9.4845H8.44111ZM8.49374 9.58099C8.61715 9.61955 8.73806 9.68358 8.85647 9.77436L8.94773 9.65532C8.81712 9.55519 8.6807 9.48226 8.53848 9.43781L8.49374 9.58099ZM8.85775 9.77532C8.97812 9.8636 9.09502 9.96831 9.20835 10.0897L9.31801 9.9874C9.19893 9.85981 9.0751 9.74871 8.94645 9.65436L8.85775 9.77532ZM9.20835 10.0897C9.32223 10.2118 9.43016 10.3441 9.53211 10.4868L9.65417 10.3996C9.5486 10.2518 9.43656 10.1144 9.31801 9.9874L9.20835 10.0897ZM9.53356 10.4888C9.64029 10.6284 9.73657 10.7656 9.82247 10.9006L9.94902 10.8201C9.8606 10.6811 9.76181 10.5403 9.65272 10.3977L9.53356 10.4888ZM9.82255 10.9007L11.5097 13.5404L11.6361 13.4596L9.94894 10.82L9.82255 10.9007ZM6.01936 6.0791V8.56311H6.16936V6.0791H6.01936ZM6.09436 8.63811H6.96594V8.48811H6.09436V8.63811ZM6.96594 8.63811C7.41284 8.63811 7.77927 8.50872 8.05734 8.24389L7.95389 8.13526C7.70901 8.36848 7.38233 8.48811 6.96594 8.48811V8.63811ZM8.05736 8.24387C8.33813 7.97625 8.47905 7.64315 8.47905 7.24951H8.32905C8.32905 7.60295 8.20435 7.89655 7.95387 8.13529L8.05736 8.24387ZM8.47905 7.24951C8.47905 6.84392 8.35706 6.5273 8.10195 6.31415C7.84943 6.10315 7.47882 6.0041 7.0033 6.0041V6.1541C7.46161 6.1541 7.79138 6.25012 8.00577 6.42926C8.21759 6.60624 8.32905 6.87483 8.32905 7.24951H8.47905ZM7.0033 6.0041H6.09436V6.1541H7.0033V6.0041ZM18.421 6.20984V6.28484H18.496V6.20984H18.421ZM15.8748 6.20984V6.13484H15.7998V6.20984H15.8748ZM15.8748 13.5V13.575H15.9498V13.5H15.8748ZM13.8577 13.5H13.7827V13.575H13.8577V13.5ZM13.8577 6.20984H13.9327V6.13484H13.8577V6.20984ZM11.3239 6.20984H11.2489V6.28484H11.3239V6.20984ZM11.3239 4.57251V4.49751H11.2489V4.57251H11.3239ZM18.421 4.57251H18.496V4.49751H18.421V4.57251ZM18.421 6.13484H15.8748V6.28484H18.421V6.13484ZM15.7998 6.20984V13.5H15.9498V6.20984H15.7998ZM15.8748 13.425H13.8577V13.575H15.8748V13.425ZM13.9327 13.5V6.20984H13.7827V13.5H13.9327ZM13.8577 6.13484H11.3239V6.28484H13.8577V6.13484ZM11.3989 6.20984V4.57251H11.2489V6.20984H11.3989ZM11.3239 4.64751H18.421V4.49751H11.3239V4.64751ZM18.346 4.57251V6.20984H18.496V4.57251H18.346Z" fill="#1C212A" mask="url(#path-2-outside-1_2_412)"/>
</svg>
